<svg width="30" height="32" viewBox="0 0 30 32" fill="none" xmlns="http://www.w3.org/2000/svg">
<path d="M13.1585 3.07656C13.5724 2.75894 14.0698 2.58801 14.5801 2.58801C15.0904 2.58801 15.5877 2.75894 16.0016 3.07656L25.7216 10.4966C26.141 10.818 26.4531 11.2733 26.6126 11.7964C26.7721 12.3194 26.7707 12.883 26.6086 13.4051L22.915 25.3754C22.754 25.8913 22.4443 26.3401 22.0299 26.6581C21.6155 26.976 21.1174 27.1469 20.6065 27.1464H8.55367C8.04274 27.1469 7.54466 26.976 7.13023 26.6581C6.7158 26.3401 6.40611 25.8913 6.24517 25.3754L2.55157 13.4051C2.38946 12.883 2.38806 12.3194 2.54757 11.7964C2.70707 11.2733 3.01917 10.818 3.43852 10.4966L13.1585 3.07656Z" fill="white" stroke="black" stroke-width="2.43" stroke-linecap="round" stroke-linejoin="round"/>
<path d="M11.8801 22.215H17.2801" stroke="black" stroke-width="1.8" stroke-linecap="round"/>
</svg>
